# Blender v2.72 (sub 0) OBJ File: ''
# www.blender.org
mtllib treasure_chest.mtl
v -0.774382 1.034893 0.408674
v -0.774382 1.131602 0.250477
v -0.961729 1.131602 0.250477
v -0.961729 1.034893 0.408674
v -0.774382 -0.000000 0.506786
v -0.774382 0.862051 0.505939
v -0.961729 0.862051 0.505939
v -0.961729 -0.000000 0.506786
v 0.774382 0.000000 -0.506786
v 0.774382 0.862051 -0.505939
v 0.961729 0.862051 -0.505939
v 0.961729 0.000000 -0.506786
v 0.961729 1.131602 -0.250477
v 0.774382 1.131602 -0.250477
v 0.774382 1.174867 -0.081469
v 0.961729 1.174867 -0.081469
v 0.961729 1.174867 0.081469
v 0.774382 1.174867 0.081469
v 0.774382 1.131602 0.250477
v 0.961729 1.131602 0.250477
v 0.961729 1.034893 -0.408675
v 0.774382 1.034893 -0.408675
v 0.961729 1.034893 0.408674
v 0.774382 1.034893 0.408674
v 0.961729 -0.000000 0.506786
v 0.961729 0.862051 0.505939
v 0.774382 0.862051 0.505939
v 0.774382 -0.000000 0.506786
v -0.961729 0.000000 -0.506786
v -0.961729 0.862051 -0.505939
v -0.774382 0.862051 -0.505939
v -0.774382 0.000000 -0.506786
v -0.961729 1.131602 -0.250477
v -0.961729 1.174867 -0.081469
v -0.774382 1.174867 -0.081469
v -0.774382 1.131602 -0.250477
v -0.961729 1.174867 0.081469
v -0.774382 1.174867 0.081469
v -0.961729 1.034893 -0.408675
v -0.774382 1.034893 -0.408675
v -0.387036 1.016869 0.390045
v -0.387036 1.107705 0.240432
v -0.774382 1.107705 0.240432
v -0.774382 1.016869 0.390045
v -0.387036 -0.000000 0.480865
v -0.387036 0.855481 0.480865
v -0.774382 0.855481 0.480865
v -0.774382 -0.000000 0.480865
v 0.387036 0.000000 -0.480865
v 0.387036 0.855481 -0.480865
v 0.774382 0.855481 -0.480865
v 0.774382 0.000000 -0.480865
v 0.387036 1.107705 -0.240432
v 0.387036 1.149148 -0.078235
v 0.774382 1.149148 -0.078235
v 0.774382 1.107705 -0.240432
v 0.387036 1.149148 0.078235
v 0.387036 1.107705 0.240432
v 0.774382 1.107705 0.240432
v 0.774382 1.149148 0.078235
v 0.387036 1.016869 -0.390045
v 0.774382 1.016869 -0.390045
v 0.774382 1.016869 0.390045
v 0.387036 1.016869 0.390045
v 0.774382 -0.000000 0.480865
v 0.774382 0.855481 0.480865
v 0.387036 0.855481 0.480865
v 0.387036 -0.000000 0.480865
v -0.774382 0.000000 -0.480865
v -0.774382 0.855481 -0.480865
v -0.387036 0.855481 -0.480865
v -0.387036 0.000000 -0.480865
v -0.774382 1.107705 -0.240432
v -0.774382 1.149148 -0.078235
v -0.387036 1.149148 -0.078235
v -0.387036 1.107705 -0.240432
v -0.774382 1.149148 0.078235
v -0.387036 1.149148 0.078235
v -0.774382 1.016869 -0.390045
v -0.387036 1.016869 -0.390045
v -0.263445 1.016869 0.390045
v 0.263445 1.016869 0.390045
v 0.263445 1.107705 0.240432
v -0.263445 1.107705 0.240432
v -0.263445 -0.000000 0.480865
v 0.263445 -0.000000 0.480865
v 0.263445 0.855481 0.480865
v -0.263445 0.855481 0.480865
v 0.263445 0.000000 -0.480865
v -0.263445 0.000000 -0.480865
v -0.263445 0.855481 -0.480865
v 0.263445 0.855481 -0.480865
v 0.263445 1.107705 -0.240432
v -0.263445 1.107705 -0.240432
v -0.263445 1.149148 -0.078235
v 0.263445 1.149148 -0.078235
v 0.263445 1.149148 0.078235
v -0.263445 1.149148 0.078235
v 0.263445 1.016869 -0.390045
v -0.263445 1.016869 -0.390045
v -0.387036 1.024706 0.398145
v -0.263445 1.024706 0.398145
v -0.263445 1.118095 0.244799
v -0.387036 1.118095 0.244799
v -0.387036 -0.000000 0.492135
v -0.263445 -0.000000 0.492135
v -0.263445 0.858337 0.491767
v -0.387036 0.858337 0.491767
v 0.387036 0.000000 -0.492135
v 0.263445 0.000000 -0.492135
v 0.263445 0.858337 -0.491767
v 0.387036 0.858337 -0.491767
v 0.387036 1.118095 -0.244799
v 0.263445 1.118095 -0.244799
v 0.263445 1.160330 -0.079641
v 0.387036 1.160330 -0.079641
v 0.387036 1.160330 0.079641
v 0.263445 1.160330 0.079641
v 0.263445 1.118095 0.244799
v 0.387036 1.118095 0.244799
v 0.387036 1.024706 -0.398145
v 0.263445 1.024706 -0.398145
v 0.263445 1.024706 0.398145
v 0.387036 1.024706 0.398145
v 0.263445 -0.000000 0.492135
v 0.387036 -0.000000 0.492135
v 0.387036 0.858337 0.491767
v 0.263445 0.858337 0.491767
v -0.263445 0.000000 -0.492135
v -0.387036 0.000000 -0.492135
v -0.387036 0.858337 -0.491767
v -0.263445 0.858337 -0.491767
v -0.263445 1.118095 -0.244799
v -0.387036 1.118095 -0.244799
v -0.387036 1.160330 -0.079641
v -0.263445 1.160330 -0.079641
v -0.263445 1.160330 0.079641
v -0.387036 1.160330 0.079641
v -0.263445 1.024706 -0.398145
v -0.387036 1.024706 -0.398145
v -0.961729 1.056512 -0.218760
v -0.961729 0.977066 -0.348719
v -0.961729 0.840891 -0.425350
v -0.961729 1.056512 0.218759
v -0.961729 0.000096 -0.426097
v -0.961729 0.000096 0.426097
v -0.961729 0.840891 0.425350
v -0.961729 0.977066 0.348719
v -0.961729 1.094257 -0.071315
v -0.961729 1.094257 0.071315
v 0.961729 1.056512 0.218759
v 0.961729 0.977066 0.348719
v 0.961729 0.840891 0.425350
v 0.961729 1.056512 -0.218760
v 0.961729 0.000096 0.426097
v 0.961729 0.000096 -0.426097
v 0.961729 0.840891 -0.425350
v 0.961729 0.977066 -0.348719
v 0.961729 1.094257 0.071315
v 0.961729 1.094257 -0.071315
v 0.104977 0.735752 -0.478512
v 0.089038 0.676265 -0.478512
v 0.089038 0.676265 -0.494456
v 0.104977 0.735752 -0.494456
v 0.045490 0.632717 -0.478512
v 0.045490 0.632717 -0.494456
v -0.013997 0.616777 -0.478512
v -0.013997 0.616777 -0.494456
v -0.073484 0.632717 -0.478512
v -0.073484 0.632717 -0.494456
v -0.117032 0.676265 -0.478512
v -0.117032 0.676265 -0.494456
v -0.132971 0.735752 -0.478512
v -0.132971 0.735752 -0.494456
v -0.117032 0.795239 -0.478512
v -0.117032 0.795239 -0.494456
v -0.073484 0.838787 -0.478512
v -0.073484 0.838787 -0.494456
v -0.013997 0.854726 -0.478512
v -0.013997 0.854726 -0.494456
v 0.045490 0.838787 -0.478512
v 0.045490 0.838787 -0.494456
v 0.089038 0.795239 -0.478512
v 0.089038 0.795239 -0.494456
vt 0.169396 0.810756
vt 0.169394 0.998407
vt 0.291521 0.998409
vt 0.423375 0.810758
vt 0.423373 0.998410
vt 0.999807 0.998416
vt 0.420667 0.810864
vt 0.420665 0.998845
vt 0.999952 0.998858
vt 0.171548 0.810857
vt 0.056325 0.810855
vt 0.056323 0.998836
vt -0.052140 0.810852
vt -0.168605 0.810851
vt -0.168606 0.998832
vt 0.291435 0.810860
vt 0.171546 0.998838
vt 0.291433 0.998841
vt -0.052142 0.998833
vt -0.290735 0.810850
vt -0.422592 0.998829
vt -0.422590 0.810848
vt -0.999039 0.810843
vt -0.419862 0.998395
vt -0.419860 0.810744
vt -0.999132 0.810730
vt -0.055530 0.998405
vt -0.055528 0.810753
vt -0.170747 0.810749
vt 0.052934 0.810755
vt -0.170749 0.998401
vt -0.290632 0.810747
vt -0.290736 0.998831
vt -0.290634 0.998398
vt 0.052933 0.998406
vt 1.483708 0.574998
vt 1.621728 0.574999
vt 1.621728 0.490580
vt 1.483708 0.399438
vt 1.621728 0.399439
vt 1.621729 0.000987
vt 1.483707 0.401487
vt 1.621727 0.401489
vt 1.621731 0.001075
vt 1.483705 0.653327
vt 1.621725 0.653330
vt 1.621725 0.573686
vt 1.207888 0.574995
vt 1.069868 0.574994
vt 1.069868 0.655496
vt 1.483705 0.573683
vt 1.621726 0.490817
vt 1.483708 0.490579
vt 1.483706 0.490815
vt 1.483704 0.667924
vt 1.621724 0.667927
vt 1.621725 0.592953
vt 1.207888 0.490576
vt 1.069868 0.399434
vt 1.207889 0.399435
vt 1.207889 0.000983
vt 1.069867 0.401480
vt 1.207887 0.401482
vt 1.207891 0.001068
vt 1.069865 0.653321
vt 1.207885 0.653323
vt 1.207886 0.573679
vt 1.483708 0.655500
vt 1.069866 0.573676
vt 1.207886 0.490810
vt 1.069868 0.490575
vt 1.069866 0.490808
vt 1.069864 0.667918
vt 1.207884 0.667920
vt 1.207885 0.592946
vt 1.251927 0.490577
vt 1.251927 0.574995
vt 1.439669 0.574997
vt 1.251927 0.000983
vt 1.251927 0.399436
vt 1.439670 0.399437
vt 1.251929 0.001069
vt 1.251926 0.401483
vt 1.439669 0.401486
vt 1.251924 0.573679
vt 1.251923 0.653323
vt 1.439666 0.653327
vt 1.439669 0.655500
vt 1.251925 0.490811
vt 1.439667 0.573683
vt 1.439670 0.490579
vt 1.439668 0.490814
vt 1.251923 0.592947
vt 1.251923 0.667920
vt 1.439666 0.667924
vt 0.354454 0.780390
vt 0.415498 0.780390
vt 0.415498 0.687212
vt 0.000424 0.780389
vt 0.288549 0.780390
vt 0.288549 0.687211
vt 0.999568 0.687500
vt 0.710041 0.687493
vt 0.710040 0.780456
vt 0.585531 0.687490
vt 0.527943 0.687488
vt 0.527942 0.780451
vt 0.473732 0.687487
vt 0.415523 0.687486
vt 0.645451 0.687491
vt 0.585530 0.780452
vt 0.354454 0.687211
vt 0.645450 0.780454
vt 0.473732 0.780450
vt 0.000473 0.780448
vt 0.288581 0.780449
vt 0.288581 0.687486
vt 0.999576 0.687225
vt 0.710032 0.687218
vt 0.710032 0.780396
vt 0.585515 0.687215
vt 0.527924 0.687213
vt 0.527923 0.780392
vt 0.473710 0.687212
vt 0.645438 0.687216
vt 0.585515 0.780394
vt 0.354483 0.687486
vt 0.645438 0.780394
vt 1.483709 0.000985
vt 0.000424 0.687210
vt 1.439670 0.000985
vt 0.999575 0.780404
vt 1.483710 0.001073
vt 0.999567 0.780463
vt 1.439672 0.001072
vt 1.251927 0.655498
vt 0.000473 0.687485
vt 1.207888 0.655497
vt 1.483705 0.592951
vt 0.079271 0.043647
vt 0.164586 -0.005372
vt 0.029498 0.406652
vt 0.691354 -0.005850
vt 0.691354 0.539281
vt 0.164586 0.538804
vt 0.079271 0.489784
vt 0.029498 0.126780
vt 0.005850 0.312335
vt 0.291523 0.810757
vt 1.621728 0.655501
vt 1.069865 0.592944
vt 1.069870 0.001066
vt 1.069869 0.000982
vt -0.999134 0.808115
vt -0.419862 0.808129
vt -0.290634 0.808132
vt -0.170749 0.808135
vt -0.055530 0.808139
vt 0.052933 0.808140
vt 0.169394 0.808141
vt 0.291521 0.808143
vt 0.423373 0.808144
vt 0.999807 0.808150
vt -0.999040 0.808557
vt -0.422592 0.808563
vt -0.290736 0.808564
vt -0.168606 0.808565
vt -0.052142 0.808567
vt 0.056323 0.808570
vt 0.171546 0.808572
vt 0.291433 0.808575
vt 0.420665 0.808579
vt 0.999952 0.808592
vt 0.999955 0.810878
vt -0.999040 0.998824
vt 0.999808 0.810764
vt -0.999134 0.998381
vt 0.830916 0.345011
vt 0.809822 0.345011
vt 0.809822 0.334934
vt 0.830916 0.355088
vt 0.809822 0.355088
vt 0.830916 0.365165
vt 0.809822 0.365165
vt 0.830916 0.254319
vt 0.809822 0.254319
vt 0.809822 0.244243
vt 0.830916 0.264396
vt 0.809822 0.264396
vt 0.830916 0.274473
vt 0.809822 0.274473
vt 0.830916 0.284550
vt 0.809822 0.284550
vt 0.830916 0.294627
vt 0.809822 0.294627
vt 0.830916 0.304704
vt 0.809822 0.304704
vt 0.830916 0.314781
vt 0.809822 0.314781
vt 0.830916 0.324857
vt 0.809822 0.324857
vt 0.830916 0.334934
vt 0.728829 0.164742
vt 0.767396 0.089108
vt 0.820079 0.061423
vt 0.872762 0.089108
vt 0.911328 0.164742
vt 0.925445 0.268061
vt 0.911328 0.371380
vt 0.872762 0.447014
vt 0.820079 0.474699
vt 0.728829 0.371380
vt 0.767396 0.447014
vt 0.714713 0.268061
vt 1.439666 0.592950
vt 0.005850 0.221097
vt 0.830916 0.244243
vn 0.000000 0.853200 0.521600
vn 0.000000 0.001000 1.000000
vn 0.000000 0.001000 -1.000000
vn 0.000000 0.968800 -0.248000
vn 0.000000 0.968800 0.248000
vn 0.000000 0.853200 -0.521600
vn 0.000000 0.490400 0.871500
vn 0.000000 0.490400 -0.871500
vn 0.000000 1.000000 0.000000
vn 0.000000 0.854800 0.519000
vn 0.000000 -0.000000 1.000000
vn 0.000000 0.000000 -1.000000
vn 0.000000 0.968900 -0.247600
vn 0.000000 0.968900 0.247600
vn 0.000000 0.854800 -0.519000
vn 0.000000 0.854100 0.520100
vn 0.000000 0.000400 1.000000
vn 0.000000 0.000400 -1.000000
vn 0.000000 0.968800 -0.247800
vn 0.000000 0.968800 0.247800
vn 0.000000 0.854100 -0.520100
vn -1.000000 0.000000 0.000000
vn 1.000000 0.000000 0.000000
vn 0.000000 -1.000000 0.001200
vn 0.000000 -1.000000 -0.000100
vn 0.000000 -1.000000 -0.000000
vn 0.000000 -1.000000 -0.001200
vn 0.000000 -1.000000 -0.001800
vn 0.000000 -1.000000 0.000100
vn 0.000000 -1.000000 0.001800
vn 0.965900 -0.258800 0.000000
vn 0.707100 -0.707100 0.000000
vn 0.258800 -0.965900 0.000000
vn -0.258800 -0.965900 0.000000
vn -0.707100 -0.707100 0.000000
vn -0.965900 -0.258800 0.000000
vn -0.965900 0.258800 0.000000
vn -0.707100 0.707100 0.000000
vn -0.258800 0.965900 0.000000
vn 0.258800 0.965900 0.000000
vn 0.707100 0.707100 0.000000
vn 0.965900 0.258800 0.000000
vn 0.000500 -1.000000 -0.000000
vn 1.000000 0.001500 0.000000
vn 0.000100 -1.000000 -0.000000
vn -0.000500 -1.000000 -0.000000
vn -0.000100 -1.000000 0.000000
vn -1.000000 0.001500 0.000000
usemtl treasure_chest
s off
f 2/1/1 3/2/1 4/3/1
f 6/4/2 7/5/2 8/6/2
f 10/7/3 11/8/3 12/9/3
f 14/10/4 15/11/4 16/12/4
f 18/13/5 19/14/5 20/15/5
f 22/16/6 14/10/6 13/17/6
f 4/3/7 7/5/7 6/4/7
f 10/7/8 22/16/8 21/18/8
f 15/11/9 18/13/9 17/19/9
f 20/15/1 19/14/1 24/20/1
f 26/21/2 27/22/2 28/23/2
f 30/24/3 31/25/3 32/26/3
f 34/27/4 35/28/4 36/29/4
f 3/2/5 2/1/5 38/30/5
f 33/31/6 36/29/6 40/32/6
f 23/33/7 24/20/7 27/22/7
f 39/34/8 40/32/8 31/25/8
f 37/35/9 38/30/9 35/28/9
f 42/36/10 43/37/10 44/38/10
f 46/39/11 47/40/11 48/41/11
f 50/42/12 51/43/12 52/44/12
f 54/45/13 55/46/13 56/47/13
f 58/48/14 59/49/14 60/50/14
f 53/51/15 56/47/15 62/52/15
f 41/53/7 44/38/7 47/40/7
f 61/54/8 62/52/8 51/43/8
f 57/55/9 60/56/9 55/57/9
f 59/49/10 58/48/10 64/58/10
f 66/59/11 67/60/11 68/61/11
f 70/62/12 71/63/12 72/64/12
f 74/65/13 75/66/13 76/67/13
f 43/37/14 42/36/14 78/68/14
f 73/69/15 76/67/15 80/70/15
f 63/71/7 64/58/7 67/60/7
f 79/72/8 80/70/8 71/63/8
f 77/73/9 78/74/9 75/75/9
f 82/76/10 83/77/10 84/78/10
f 86/79/11 87/80/11 88/81/11
f 90/82/12 91/83/12 92/84/12
f 94/85/13 95/86/13 96/87/13
f 98/88/14 84/78/14 83/77/14
f 100/89/15 94/85/15 93/90/15
f 87/80/7 82/76/7 81/91/7
f 91/83/8 100/89/8 99/92/8
f 95/93/9 98/94/9 97/95/9
f 102/96/16 103/97/16 104/98/16
f 106/99/17 107/100/17 108/101/17
f 110/102/18 111/103/18 112/104/18
f 114/105/19 115/106/19 116/107/19
f 118/108/20 119/109/20 120/97/20
f 122/110/21 114/105/21 113/111/21
f 107/100/7 102/96/7 101/112/7
f 111/103/8 122/110/8 121/113/8
f 115/106/9 118/108/9 117/114/9
f 124/96/16 120/97/16 119/109/16
f 126/115/17 127/116/17 128/117/17
f 130/118/18 131/119/18 132/120/18
f 134/121/19 135/122/19 136/123/19
f 138/124/20 104/98/20 103/97/20
f 140/125/21 134/121/21 133/126/21
f 127/116/7 124/96/7 123/127/7
f 131/119/8 140/125/8 139/128/8
f 135/122/9 138/124/9 137/114/9
f 42/36/22 41/53/22 101/112/22
f 41/53/22 46/39/22 108/101/22
f 45/129/22 105/130/22 108/101/22
f 85/131/23 88/81/23 107/100/23
f 81/91/23 102/96/23 107/100/23
f 84/78/23 103/97/23 102/96/23
f 98/88/23 137/114/23 103/97/23
f 95/93/23 136/123/23 137/114/23
f 95/86/23 94/85/23 133/126/23
f 94/85/23 100/89/23 139/128/23
f 100/89/23 91/83/23 132/120/23
f 90/82/23 129/132/23 132/120/23
f 72/64/22 71/63/22 131/119/22
f 80/70/22 140/125/22 131/119/22
f 76/67/22 134/121/22 140/125/22
f 75/66/22 135/122/22 134/121/22
f 78/74/22 138/124/22 135/122/22
f 78/68/22 42/36/22 104/98/22
f 49/133/23 109/134/23 112/104/23
f 89/135/22 92/84/22 111/103/22
f 99/92/22 122/110/22 111/103/22
f 93/90/22 114/105/22 122/110/22
f 96/87/22 115/106/22 114/105/22
f 97/95/22 118/108/22 115/106/22
f 97/136/22 83/77/22 119/109/22
f 83/77/22 82/76/22 123/127/22
f 82/76/22 87/80/22 128/117/22
f 86/79/22 125/137/22 128/117/22
f 68/61/23 67/60/23 127/116/23
f 64/58/23 124/96/23 127/116/23
f 58/48/23 120/97/23 124/96/23
f 57/138/23 117/114/23 120/97/23
f 54/139/23 116/107/23 117/114/23
f 54/45/23 53/51/23 113/111/23
f 53/51/23 61/54/23 121/113/23
f 61/54/23 50/42/23 112/104/23
f 142/140/22 143/141/22 144/142/22
f 145/143/22 146/144/22 144/142/22
f 146/144/22 147/145/22 148/146/22
f 141/147/22 144/142/22 150/148/22
f 48/41/23 47/40/23 6/4/23
f 1/149/23 6/4/23 47/40/23
f 1/149/23 44/38/23 43/37/23
f 77/150/23 38/30/23 2/1/23
f 74/151/23 35/28/23 38/30/23
f 74/65/23 73/69/23 36/29/23
f 73/69/23 79/72/23 40/32/23
f 79/72/23 70/62/23 31/25/23
f 69/152/23 32/26/23 31/25/23
f 152/146/23 153/145/23 154/147/23
f 155/144/23 156/143/23 154/147/23
f 156/143/23 157/141/23 158/140/23
f 159/148/23 151/142/23 154/147/23
f 52/44/22 51/43/22 10/7/22
f 62/52/22 22/16/22 10/7/22
f 56/47/22 14/10/22 22/16/22
f 55/46/22 15/11/22 14/10/22
f 55/57/22 60/56/22 18/13/22
f 60/50/22 59/49/22 19/14/22
f 59/49/22 63/71/22 24/20/22
f 66/59/22 27/22/22 24/20/22
f 65/153/22 28/23/22 27/22/22
f 145/154/22 143/155/22 30/24/22
f 30/24/22 143/155/22 142/156/22
f 39/34/22 142/156/22 141/157/22
f 33/31/22 141/157/22 149/158/22
f 149/158/22 150/159/22 37/35/22
f 150/159/22 144/160/22 3/2/22
f 144/160/22 148/161/22 4/3/22
f 148/161/22 147/162/22 7/5/22
f 7/5/22 147/162/22 146/163/22
f 155/164/23 153/165/23 26/21/23
f 26/21/23 153/165/23 152/166/23
f 23/33/23 152/166/23 151/167/23
f 20/15/23 151/167/23 159/168/23
f 159/168/23 160/169/23 16/12/23
f 160/169/23 154/170/23 13/17/23
f 154/170/23 158/171/23 21/18/23
f 158/171/23 157/172/23 11/8/23
f 11/8/23 157/172/23 156/173/23
f 9/174/24 12/9/24 156/173/24
f 25/175/25 28/23/25 156/173/25
f 28/23/9 65/153/9 68/61/9
f 126/115/26 125/137/26 86/79/26
f 156/173/25 68/61/25 86/79/25
f 106/99/26 105/130/26 45/129/26
f 5/176/27 8/6/27 146/163/27
f 48/41/28 146/163/28 85/131/28
f 86/79/28 85/131/28 146/163/28
f 29/177/29 32/26/29 146/163/29
f 32/26/9 69/152/9 72/64/9
f 130/118/26 129/132/26 90/82/26
f 146/163/29 72/64/29 90/82/29
f 90/82/11 89/135/11 49/133/11
f 110/102/26 109/134/26 49/133/26
f 52/44/30 156/173/30 49/133/30
f 162/178/31 163/179/31 164/180/31
f 162/178/32 165/181/32 166/182/32
f 167/183/33 168/184/33 166/182/33
f 169/185/34 170/186/34 168/187/34
f 171/188/35 172/189/35 170/186/35
f 173/190/36 174/191/36 172/189/36
f 175/192/37 176/193/37 174/191/37
f 177/194/38 178/195/38 176/193/38
f 179/196/39 180/197/39 178/195/39
f 181/198/40 182/199/40 180/197/40
f 181/198/41 183/200/41 184/201/41
f 161/202/42 164/180/42 184/201/42
f 163/203/12 166/204/12 168/205/12
f 168/205/12 170/206/12 172/207/12
f 172/207/12 174/208/12 176/209/12
f 178/210/12 180/211/12 184/212/12
f 180/211/12 182/213/12 184/212/12
f 168/205/12 176/209/12 184/212/12
f 164/214/12 163/203/12 184/212/12
f 1/149/1 2/1/1 4/3/1
f 5/176/2 6/4/2 8/6/2
f 9/174/3 10/7/3 12/9/3
f 13/17/4 14/10/4 16/12/4
f 17/19/5 18/13/5 20/15/5
f 21/18/6 22/16/6 13/17/6
f 1/149/7 4/3/7 6/4/7
f 11/8/8 10/7/8 21/18/8
f 16/12/9 15/11/9 17/19/9
f 23/33/1 20/15/1 24/20/1
f 25/175/2 26/21/2 28/23/2
f 29/177/3 30/24/3 32/26/3
f 33/31/4 34/27/4 36/29/4
f 37/35/5 3/2/5 38/30/5
f 39/34/6 33/31/6 40/32/6
f 26/21/7 23/33/7 27/22/7
f 30/24/8 39/34/8 31/25/8
f 34/27/9 37/35/9 35/28/9
f 41/53/10 42/36/10 44/38/10
f 45/129/11 46/39/11 48/41/11
f 49/133/12 50/42/12 52/44/12
f 53/51/13 54/45/13 56/47/13
f 57/138/14 58/48/14 60/50/14
f 61/54/15 53/51/15 62/52/15
f 46/39/7 41/53/7 47/40/7
f 50/42/8 61/54/8 51/43/8
f 54/139/9 57/55/9 55/57/9
f 63/71/10 59/49/10 64/58/10
f 65/153/11 66/59/11 68/61/11
f 69/152/12 70/62/12 72/64/12
f 73/69/13 74/65/13 76/67/13
f 77/150/14 43/37/14 78/68/14
f 79/72/15 73/69/15 80/70/15
f 66/59/7 63/71/7 67/60/7
f 70/62/8 79/72/8 71/63/8
f 74/151/9 77/73/9 75/75/9
f 81/91/10 82/76/10 84/78/10
f 85/131/11 86/79/11 88/81/11
f 89/135/12 90/82/12 92/84/12
f 93/90/13 94/85/13 96/87/13
f 97/136/14 98/88/14 83/77/14
f 99/92/15 100/89/15 93/90/15
f 88/81/7 87/80/7 81/91/7
f 92/84/8 91/83/8 99/92/8
f 96/215/9 95/93/9 97/95/9
f 101/112/16 102/96/16 104/98/16
f 105/130/17 106/99/17 108/101/17
f 109/134/18 110/102/18 112/104/18
f 113/111/19 114/105/19 116/107/19
f 117/114/20 118/108/20 120/97/20
f 121/113/21 122/110/21 113/111/21
f 108/101/7 107/100/7 101/112/7
f 112/104/8 111/103/8 121/113/8
f 116/107/9 115/106/9 117/114/9
f 123/127/16 124/96/16 119/109/16
f 125/137/17 126/115/17 128/117/17
f 129/132/18 130/118/18 132/120/18
f 133/126/19 134/121/19 136/123/19
f 137/114/20 138/124/20 103/97/20
f 139/128/21 140/125/21 133/126/21
f 128/117/7 127/116/7 123/127/7
f 132/120/8 131/119/8 139/128/8
f 136/123/9 135/122/9 137/114/9
f 104/98/22 42/36/22 101/112/22
f 101/112/22 41/53/22 108/101/22
f 46/39/22 45/129/22 108/101/22
f 106/99/23 85/131/23 107/100/23
f 88/81/23 81/91/23 107/100/23
f 81/91/23 84/78/23 102/96/23
f 84/78/23 98/88/23 103/97/23
f 98/94/23 95/93/23 137/114/23
f 136/123/23 95/86/23 133/126/23
f 133/126/23 94/85/23 139/128/23
f 139/128/23 100/89/23 132/120/23
f 91/83/23 90/82/23 132/120/23
f 130/118/22 72/64/22 131/119/22
f 71/63/22 80/70/22 131/119/22
f 80/70/22 76/67/22 140/125/22
f 76/67/22 75/66/22 134/121/22
f 75/75/22 78/74/22 135/122/22
f 138/124/22 78/68/22 104/98/22
f 50/42/23 49/133/23 112/104/23
f 110/102/22 89/135/22 111/103/22
f 92/84/22 99/92/22 111/103/22
f 99/92/22 93/90/22 122/110/22
f 93/90/22 96/87/22 114/105/22
f 96/215/22 97/95/22 115/106/22
f 118/108/22 97/136/22 119/109/22
f 119/109/22 83/77/22 123/127/22
f 123/127/22 82/76/22 128/117/22
f 87/80/22 86/79/22 128/117/22
f 126/115/23 68/61/23 127/116/23
f 67/60/23 64/58/23 127/116/23
f 64/58/23 58/48/23 124/96/23
f 58/48/23 57/138/23 120/97/23
f 57/55/23 54/139/23 117/114/23
f 116/107/23 54/45/23 113/111/23
f 113/111/23 53/51/23 121/113/23
f 121/113/23 61/54/23 112/104/23
f 141/147/22 142/140/22 144/142/22
f 143/141/22 145/143/22 144/142/22
f 144/142/22 146/144/22 148/146/22
f 149/216/22 141/147/22 150/148/22
f 5/176/23 48/41/23 6/4/23
f 44/38/23 1/149/23 47/40/23
f 2/1/23 1/149/23 43/37/23
f 43/37/23 77/150/23 2/1/23
f 77/73/23 74/151/23 38/30/23
f 35/28/23 74/65/23 36/29/23
f 36/29/23 73/69/23 40/32/23
f 40/32/23 79/72/23 31/25/23
f 70/62/23 69/152/23 31/25/23
f 151/142/23 152/146/23 154/147/23
f 153/145/23 155/144/23 154/147/23
f 154/147/23 156/143/23 158/140/23
f 160/216/23 159/148/23 154/147/23
f 9/174/22 52/44/22 10/7/22
f 51/43/22 62/52/22 10/7/22
f 62/52/22 56/47/22 22/16/22
f 56/47/22 55/46/22 14/10/22
f 15/11/22 55/57/22 18/13/22
f 18/13/22 60/50/22 19/14/22
f 19/14/22 59/49/22 24/20/22
f 63/71/22 66/59/22 24/20/22
f 66/59/22 65/153/22 27/22/22
f 29/177/22 145/154/22 30/24/22
f 39/34/22 30/24/22 142/156/22
f 33/31/22 39/34/22 141/157/22
f 34/27/22 33/31/22 149/158/22
f 34/27/22 149/158/22 37/35/22
f 37/35/22 150/159/22 3/2/22
f 3/2/22 144/160/22 4/3/22
f 4/3/22 148/161/22 7/5/22
f 8/6/22 7/5/22 146/163/22
f 25/175/23 155/164/23 26/21/23
f 23/33/23 26/21/23 152/166/23
f 20/15/23 23/33/23 151/167/23
f 17/19/23 20/15/23 159/168/23
f 17/19/23 159/168/23 16/12/23
f 16/12/23 160/169/23 13/17/23
f 13/17/23 154/170/23 21/18/23
f 21/18/23 158/171/23 11/8/23
f 12/9/23 11/8/23 156/173/23
f 52/44/43 9/174/43 156/173/43
f 155/164/44 25/175/44 156/173/44
f 156/173/25 28/23/25 68/61/25
f 68/61/26 126/115/26 86/79/26
f 90/82/45 156/173/45 86/79/45
f 85/131/26 106/99/26 45/129/26
f 48/41/46 5/176/46 146/163/46
f 45/129/12 48/41/12 85/131/12
f 90/82/47 86/79/47 146/163/47
f 145/154/48 29/177/48 146/163/48
f 146/163/29 32/26/29 72/64/29
f 72/64/26 130/118/26 90/82/26
f 156/173/30 90/82/30 49/133/30
f 89/135/26 110/102/26 49/133/26
f 161/202/31 162/178/31 164/180/31
f 163/179/32 162/178/32 166/182/32
f 165/181/33 167/183/33 166/182/33
f 167/217/34 169/185/34 168/187/34
f 169/185/35 171/188/35 170/186/35
f 171/188/36 173/190/36 172/189/36
f 173/190/37 175/192/37 174/191/37
f 175/192/38 177/194/38 176/193/38
f 177/194/39 179/196/39 178/195/39
f 179/196/40 181/198/40 180/197/40
f 182/199/41 181/198/41 184/201/41
f 183/200/42 161/202/42 184/201/42
f 184/212/12 163/203/12 168/205/12
f 176/209/12 168/205/12 172/207/12
f 176/209/12 178/210/12 184/212/12
